<?xml version="1.0" encoding="UTF-8"?>
<svg xmlns="http://www.w3.org/2000/svg" xmlns:xlink="http://www.w3.org/1999/xlink" viewBox="0 0 50 50" width="50px" height="50px">
<g id="surface36971402">
<path style=" stroke:none;fill-rule:nonzero;fill:rgb(59.607846%,21.176471%,95.686275%);fill-opacity:1;" d="M 6 4 C 4.90625 4 4 4.90625 4 6 L 4 44 C 4 45.09375 4.90625 46 6 46 L 44 46 C 45.09375 46 46 45.09375 46 44 L 46 6 C 46 4.90625 45.09375 4 44 4 Z M 6 6 L 44 6 L 44 44 L 6 44 Z M 17.925781 14 L 13 36 L 15.398438 36 L 16.824219 29.566406 L 21.625 29.566406 L 23.015625 36 L 25.449219 36 L 20.648438 14 Z M 19.226562 16.441406 L 19.320312 16.441406 C 19.578125 18.039062 19.867188 19.832031 20.1875 21.367188 L 21.320312 27.003906 L 17.226562 27 L 18.328125 21.402344 C 18.648438 19.925781 18.96875 18.070312 19.226562 16.441406 Z M 32.523438 20 C 31.179688 20 30.058594 20.488281 29.261719 21.207031 C 28.46875 21.921875 27.984375 22.828125 27.664062 23.6875 C 27.035156 25.402344 27.046875 27.042969 27.046875 27.054688 C 27.03125 27.203125 26.816406 29.167969 27.417969 31.304688 C 27.730469 32.414062 28.273438 33.582031 29.25 34.492188 C 30.230469 35.402344 31.640625 36 33.417969 36 C 35.53125 36 37.433594 35.035156 37.433594 35.035156 L 36.5625 33.230469 C 36.5625 33.230469 34.886719 34 33.417969 34 C 32.0625 34 31.234375 33.605469 30.613281 33.027344 C 29.996094 32.453125 29.589844 31.636719 29.34375 30.761719 C 29.042969 29.695312 29.003906 28.761719 29.011719 28.066406 L 38 28.066406 L 38 27.066406 C 38 27.066406 38.011719 25.40625 37.378906 23.6875 C 37.0625 22.828125 36.574219 21.921875 35.78125 21.203125 C 34.988281 20.488281 33.867188 20 32.523438 20 Z M 32.523438 22 C 33.417969 22 33.976562 22.269531 34.441406 22.691406 C 34.90625 23.109375 35.257812 23.722656 35.503906 24.378906 C 35.804688 25.203125 35.769531 25.550781 35.816406 26.066406 L 29.230469 26.066406 C 29.277344 25.550781 29.238281 25.203125 29.542969 24.378906 C 29.785156 23.722656 30.136719 23.109375 30.605469 22.691406 C 31.070312 22.269531 31.628906 22 32.523438 22 Z M 32.523438 22 "/>
</g>
</svg>
