<?xml version="1.0" encoding="UTF-8"?>
<svg xmlns="http://www.w3.org/2000/svg" xmlns:xlink="http://www.w3.org/1999/xlink" viewBox="0 0 24 24" width="24px" height="24px">
<g id="surface36952745">
<path style=" stroke:none;fill-rule:nonzero;fill:rgb(59.607846%,21.176471%,95.686275%);fill-opacity:1;" d="M 5 3 C 3.898438 3 3 3.898438 3 5 L 3 19 C 3 20.101562 3.898438 21 5 21 L 19 21 C 20.101562 21 21 20.101562 21 19 L 21 5 C 21 3.898438 20.101562 3 19 3 Z M 5 5 L 19 5 L 19 19 L 5 19 Z M 7 8 L 7 15.90625 L 8.675781 15.90625 L 8.675781 13.113281 L 9.789062 13.113281 C 11 13.113281 12.304688 12.464844 12.304688 10.601562 C 12.304688 10.140625 12.023438 8 9.699219 8 Z M 8.671875 9.304688 L 9.789062 9.304688 C 10.441406 9.304688 10.71875 9.953125 10.71875 10.605469 C 10.71875 11.253906 10.53125 11.8125 9.789062 11.8125 L 8.671875 11.8125 Z M 15.167969 9.953125 C 14.425781 9.953125 13.121094 10.324219 13.121094 11.71875 C 13.121094 13.582031 15.820312 13.488281 15.820312 14.328125 C 15.820312 14.699219 15.542969 14.886719 15.167969 14.886719 C 14.984375 14.886719 14.425781 14.789062 14.425781 14.046875 L 12.9375 14.046875 C 12.9375 14.976562 13.683594 16 15.171875 16 C 15.914062 16 17.3125 15.722656 17.3125 14.328125 C 17.3125 12.277344 14.613281 12.558594 14.613281 11.628906 C 14.613281 11.257812 14.894531 11.070312 15.171875 11.070312 C 15.542969 11.070312 15.730469 11.347656 15.730469 11.8125 L 17.3125 11.8125 C 17.3125 10.792969 16.566406 9.953125 15.167969 9.953125 Z M 15.167969 9.953125 "/>
</g>
</svg>
