<?xml version="1.0" encoding="UTF-8"?>
<svg xmlns="http://www.w3.org/2000/svg" xmlns:xlink="http://www.w3.org/1999/xlink" viewBox="0 0 50 50" width="50px" height="50px">
<g id="surface341435444">
<path style=" stroke:none;fill-rule:nonzero;fill:rgb(59.607846%,21.176471%,95.686275%);fill-opacity:1;" d="M 35.5 2 C 34.867188 2 34.273438 2.242188 33.832031 2.636719 C 33.824219 2.644531 33.738281 2.730469 33.707031 2.765625 C 33.671875 2.800781 33.628906 2.855469 33.570312 2.917969 C 33.453125 3.050781 33.28125 3.238281 33.066406 3.476562 C 32.636719 3.957031 32.03125 4.636719 31.304688 5.449219 C 29.847656 7.074219 27.917969 9.234375 25.988281 11.390625 L 18.921875 19.296875 C 17.160156 17.867188 15.191406 16.269531 13.789062 15.128906 C 12.457031 14.050781 11.34375 13.144531 10.5625 12.507812 C 10.167969 12.1875 9.859375 11.9375 9.644531 11.761719 C 9.539062 11.675781 9.453125 11.605469 9.398438 11.558594 C 9.375 11.539062 9.355469 11.527344 9.34375 11.515625 L 9.339844 11.511719 C 8.984375 11.199219 8.511719 11 8 11 C 7.609375 11 7.507812 11.078125 7.308594 11.152344 C 7.109375 11.222656 6.894531 11.3125 6.660156 11.417969 C 6.1875 11.628906 5.636719 11.898438 5.105469 12.167969 C 4.039062 12.707031 3.050781 13.242188 3.050781 13.242188 L 3.054688 13.253906 C 2.433594 13.59375 2 14.25 2 15 L 2 36 C 2 36.785156 2.46875 37.464844 3.136719 37.792969 L 3.132812 37.800781 C 3.132812 37.800781 4.050781 38.269531 5.019531 38.753906 C 5.5 39 5.996094 39.246094 6.398438 39.445312 C 6.796875 39.644531 7.019531 39.761719 7.25 39.851562 C 7.480469 39.945312 7.738281 40 8 40 C 8.351562 40 8.691406 39.902344 8.984375 39.738281 L 8.988281 39.738281 C 8.988281 39.738281 9.078125 39.679688 9.089844 39.671875 C 9.101562 39.664062 9.109375 39.660156 9.113281 39.65625 C 9.125 39.648438 9.128906 39.644531 9.132812 39.636719 C 9.144531 39.628906 9.152344 39.625 9.167969 39.613281 C 9.191406 39.59375 9.222656 39.566406 9.265625 39.53125 C 9.34375 39.464844 9.460938 39.367188 9.609375 39.246094 C 9.902344 39 10.320312 38.652344 10.820312 38.234375 C 11.820312 37.398438 13.148438 36.289062 14.472656 35.179688 C 16.765625 33.261719 18.476562 31.828125 19.054688 31.347656 C 22.675781 35.277344 26.296875 39.210938 29.03125 42.171875 C 30.429688 43.691406 31.605469 44.964844 32.433594 45.863281 C 32.847656 46.308594 33.175781 46.664062 33.40625 46.910156 C 33.519531 47.03125 33.605469 47.128906 33.671875 47.199219 C 33.703125 47.230469 33.726562 47.257812 33.75 47.277344 C 33.769531 47.296875 33.707031 47.25 33.835938 47.367188 L 33.839844 47.367188 C 34.277344 47.757812 34.867188 48 35.5 48 C 35.871094 48 36.222656 47.910156 36.539062 47.761719 L 36.542969 47.769531 C 36.542969 47.769531 38.949219 46.527344 41.390625 45.261719 C 42.609375 44.628906 43.839844 43.992188 44.78125 43.5 C 45.253906 43.253906 45.652344 43.046875 45.945312 42.894531 C 46.238281 42.738281 46.355469 42.683594 46.488281 42.605469 C 47.390625 42.089844 48 41.109375 48 40 L 48 10 C 48 8.972656 47.476562 8.050781 46.679688 7.515625 C 46.542969 7.421875 46.527344 7.421875 46.433594 7.371094 C 46.339844 7.320312 46.214844 7.253906 46.066406 7.175781 C 45.765625 7.015625 45.363281 6.800781 44.886719 6.550781 C 43.929688 6.050781 42.691406 5.40625 41.460938 4.769531 C 39 3.496094 36.585938 2.25 36.585938 2.25 L 36.582031 2.25 C 36.253906 2.089844 35.882812 2 35.5 2 Z M 35.5 4 C 35.609375 4 35.699219 4.027344 35.777344 4.085938 C 35.914062 4.175781 36 4.320312 36 4.5 L 36 14.535156 L 24.707031 23.996094 C 24.121094 23.519531 24.117188 23.519531 23.527344 23.039062 C 22.417969 22.140625 21.554688 21.4375 20.472656 20.558594 C 21.082031 19.882812 23.972656 16.644531 27.476562 12.722656 C 29.40625 10.566406 31.339844 8.40625 32.792969 6.78125 C 33.519531 5.96875 34.128906 5.292969 34.554688 4.8125 C 34.769531 4.574219 34.9375 4.386719 35.054688 4.257812 C 35.105469 4.199219 35.144531 4.15625 35.175781 4.121094 C 35.261719 4.046875 35.371094 4 35.5 4 Z M 38 5.230469 C 38.921875 5.707031 39.261719 5.882812 40.542969 6.542969 C 41.769531 7.183594 43.007812 7.828125 43.960938 8.324219 C 44.433594 8.574219 44.835938 8.785156 45.128906 8.941406 C 45.273438 9.015625 45.390625 9.078125 45.472656 9.125 C 45.554688 9.171875 45.652344 9.234375 45.558594 9.167969 L 45.558594 9.171875 C 45.824219 9.351562 46 9.648438 46 10 L 46 40 C 46 40.378906 45.796875 40.695312 45.496094 40.871094 C 45.554688 40.835938 45.308594 40.96875 45.019531 41.121094 C 44.726562 41.273438 44.332031 41.480469 43.859375 41.726562 C 42.917969 42.214844 41.6875 42.855469 40.46875 43.488281 C 39.222656 44.132812 38.910156 44.292969 38 44.761719 Z M 8.027344 13.023438 C 8.035156 13.03125 8.054688 13.042969 8.0625 13.054688 C 8.078125 13.066406 8.101562 13.085938 8.132812 13.109375 C 8.1875 13.15625 8.273438 13.226562 8.382812 13.3125 C 8.59375 13.488281 8.90625 13.738281 9.296875 14.058594 C 10.082031 14.695312 11.195312 15.601562 12.527344 16.683594 C 15.191406 18.847656 18.734375 21.722656 22.265625 24.59375 C 29.140625 30.171875 35.625 35.433594 36 35.738281 L 36 45.5 C 36 45.691406 35.898438 45.847656 35.746094 45.929688 C 35.746094 45.929688 35.679688 45.964844 35.675781 45.964844 C 35.621094 45.988281 35.5625 46 35.5 46 C 35.367188 46 35.261719 45.953125 35.171875 45.878906 C 35.160156 45.863281 35.148438 45.851562 35.128906 45.832031 C 35.070312 45.765625 34.980469 45.671875 34.867188 45.550781 C 34.644531 45.304688 34.316406 44.953125 33.902344 44.503906 C 33.074219 43.609375 31.902344 42.335938 30.5 40.816406 C 27.695312 37.777344 23.972656 33.738281 20.253906 29.703125 C 16.539062 25.664062 12.824219 21.632812 10.03125 18.605469 C 8.636719 17.089844 7.472656 15.828125 6.652344 14.941406 C 6.296875 14.554688 6.042969 14.28125 5.824219 14.046875 C 5.917969 14 5.914062 14 6.003906 13.953125 C 6.523438 13.691406 7.054688 13.429688 7.472656 13.246094 C 7.683594 13.152344 7.867188 13.074219 7.988281 13.03125 C 8.007812 13.027344 8.011719 13.027344 8.027344 13.023438 Z M 4 15.019531 C 4.054688 15.078125 4.128906 15.15625 4.230469 15.265625 C 4.453125 15.503906 4.773438 15.851562 5.183594 16.292969 C 5.625 16.773438 6.378906 17.589844 7 18.265625 L 7 32.640625 L 4.003906 35.996094 C 4.003906 35.996094 4 36 4 36 Z M 36 17.144531 L 36 33.164062 C 34.933594 32.296875 30.960938 29.074219 26.292969 25.28125 Z M 9 20.433594 C 10.269531 21.8125 11.984375 23.675781 13.519531 25.339844 L 9 30.398438 Z M 14.878906 26.816406 C 15.867188 27.890625 16.675781 28.765625 17.695312 29.875 C 17.074219 30.394531 15.445312 31.757812 13.191406 33.644531 C 11.863281 34.753906 10.539062 35.863281 9.539062 36.699219 C 9.039062 37.117188 8.625 37.464844 8.332031 37.707031 C 8.183594 37.832031 8.066406 37.925781 7.988281 37.992188 C 8.019531 38.007812 7.667969 37.84375 7.285156 37.652344 C 6.890625 37.457031 6.398438 37.214844 5.917969 36.96875 C 5.882812 36.953125 5.882812 36.953125 5.847656 36.933594 Z M 8.007812 37.996094 L 8.472656 38.820312 L 7.996094 38.003906 L 8 38 C 8 38 8.011719 37.992188 8.007812 37.996094 Z M 8.007812 37.996094 "/>
</g>
</svg>
