<?xml version="1.0" encoding="UTF-8"?>
<svg xmlns="http://www.w3.org/2000/svg" xmlns:xlink="http://www.w3.org/1999/xlink" viewBox="0 0 24 24" width="24px" height="24px">
<g id="surface36726233">
<path style=" stroke:none;fill-rule:nonzero;fill:rgb(59.607846%,21.176471%,95.686275%);fill-opacity:1;" d="M 3.339844 1.007812 C 2.535156 0.960938 1.714844 1.339844 1.304688 2.03125 C 1.105469 2.367188 1.003906 2.738281 1 3.121094 C 1 4.054688 1.601562 4.8125 1.960938 5.261719 C 2.023438 5.339844 2.082031 5.410156 2.140625 5.496094 L 2.300781 5.710938 C 2.464844 5.921875 2.644531 6.160156 2.703125 6.277344 C 2.722656 6.335938 2.75 6.433594 2.78125 6.554688 C 2.941406 7.121094 3.234375 8.167969 3.699219 8.96875 C 3.886719 9.292969 4.152344 9.695312 4.339844 9.980469 C 4.214844 10.617188 4 11.789062 4 12.5 C 4 13.75 4.257812 14.753906 4.824219 15.671875 C 5.035156 16 5.671875 17 6.75 17 C 7.132812 17 7.769531 16.851562 7.941406 15.898438 C 8.707031 16.886719 9.628906 17.933594 11.230469 18.910156 C 11.308594 18.960938 11.398438 19 11.5 19 C 11.777344 19 12 18.777344 12 18.5 C 12 18.332031 11.914062 18.191406 11.785156 18.101562 C 10.414062 16.78125 8.605469 14.566406 7.875 12.761719 C 7.722656 12.386719 7.226562 12.328125 7.007812 12.667969 C 6.78125 13.023438 6.511719 13.503906 6.265625 14.109375 C 6.085938 13.652344 6 13.136719 6 12.5 C 6 12.035156 6.261719 10.636719 6.398438 9.949219 C 6.449219 9.699219 6.398438 9.445312 6.25 9.230469 C 6.007812 8.867188 5.621094 8.292969 5.425781 7.960938 C 5.089844 7.386719 4.84375 6.496094 4.710938 6.015625 C 4.648438 5.785156 4.59375 5.617188 4.546875 5.5 C 4.371094 5.121094 4.117188 4.789062 3.894531 4.492188 L 3.765625 4.328125 C 3.703125 4.238281 3.621094 4.132812 3.527344 4.015625 C 3.34375 3.785156 3 3.359375 3.011719 3.082031 L 3.125 3.003906 L 3.125 3 C 3.921875 3 4.945312 3.5625 5.332031 3.773438 C 5.457031 3.84375 5.546875 3.890625 5.597656 3.914062 L 5.773438 3.992188 L 6.113281 4.003906 C 6.558594 4.015625 7.917969 4.042969 8.878906 4.429688 C 10.628906 5.128906 11.597656 5.832031 12.582031 7.109375 C 13.902344 8.828125 14.75 10.828125 15.234375 12.25 C 15.460938 12.90625 15.660156 13.65625 15.777344 14.140625 C 15.855469 14.457031 16.082031 14.710938 16.386719 14.828125 C 16.824219 14.996094 17.480469 15.273438 18 15.597656 C 18.445312 15.871094 18.941406 16.226562 19.421875 16.679688 C 18.328125 16.949219 17.667969 17.382812 17.316406 17.679688 C 17.113281 17.851562 17.09375 18.160156 17.269531 18.363281 C 17.609375 18.761719 18.355469 19.421875 19.75 20.375 C 20.800781 21.085938 21.910156 22.496094 22.121094 22.8125 C 22.210938 22.925781 22.34375 23 22.5 23 C 22.777344 23 23 22.777344 23 22.5 C 23 22.394531 22.96875 22.300781 22.914062 22.222656 C 22.894531 22.195312 22.765625 21.976562 22.710938 21.882812 C 22.210938 21 21.269531 19.730469 20.304688 18.507812 C 20.960938 18.296875 21.699219 18.144531 22.230469 18.046875 C 22.585938 17.980469 22.757812 17.574219 22.550781 17.277344 C 22.277344 16.878906 21.878906 16.351562 21.375 15.820312 C 19.964844 14.328125 18.414062 13.480469 17.597656 13.132812 C 17.265625 11.863281 16.261719 8.613281 14.167969 5.890625 C 12.96875 4.332031 11.691406 3.398438 9.621094 2.570312 C 8.394531 2.082031 6.917969 2.023438 6.261719 2.007812 C 5.71875 1.707031 4.546875 1.074219 3.335938 1.007812 Z M 7.140625 5 C 7.125 5 6.777344 5 6.378906 5.101562 C 6.296875 5.121094 6.230469 5.183594 6.199219 5.257812 C 6.171875 5.335938 6.183594 5.425781 6.234375 5.492188 L 7.269531 6.898438 C 7.316406 6.960938 7.371094 7.023438 7.46875 7 C 7.546875 7 7.621094 6.964844 7.667969 6.898438 C 7.996094 6.464844 8 5.957031 8 5.9375 C 8 5.90625 7.996094 5.878906 7.984375 5.847656 C 7.976562 5.824219 7.753906 5.25 7.238281 5.019531 C 7.207031 5.007812 7.175781 5 7.140625 5 Z M 7.140625 5 "/>
</g>
</svg>
