<?xml version="1.0" encoding="UTF-8"?>
<svg xmlns="http://www.w3.org/2000/svg" xmlns:xlink="http://www.w3.org/1999/xlink" viewBox="0 0 32 32" width="32px" height="32px">
<g id="surface342159043">
<path style=" stroke:none;fill-rule:nonzero;fill:rgb(59.607846%,21.176471%,95.686275%);fill-opacity:1;" d="M 16 3 C 8.832031 3 3 8.832031 3 16 C 3 23.167969 8.832031 29 16 29 C 23.167969 29 29 23.167969 29 16 C 29 8.832031 23.167969 3 16 3 Z M 16 5 C 22.066406 5 27 9.933594 27 16 C 27 22.066406 22.066406 27 16 27 C 9.933594 27 5 22.066406 5 16 C 5 9.933594 9.933594 5 16 5 Z M 20.273438 10.074219 C 20.199219 10.078125 17.757812 9.941406 16.328125 14.140625 C 15.9375 13.820312 14.101562 11.628906 12.066406 13.144531 C 11.335938 13.691406 10.855469 14.992188 11.953125 16.214844 C 12.605469 16.914062 12.980469 17.191406 12.808594 17.75 C 12.457031 18.898438 10.667969 18.375 10.84375 17.804688 C 10.894531 17.632812 10.980469 17.632812 11.085938 17.300781 C 11.382812 16.324219 10.039062 15.847656 9.753906 16.777344 C 9.585938 17.320312 9.84375 18.296875 11.230469 18.726562 C 12.855469 19.226562 14.230469 18.339844 14.421875 17.1875 C 14.546875 16.464844 14.222656 15.929688 13.621094 15.238281 L 13.136719 14.699219 C 12.839844 14.402344 12.738281 13.902344 13.042969 13.515625 C 13.300781 13.191406 13.667969 13.050781 14.269531 13.214844 C 15.148438 13.453125 15.539062 14.0625 16.1875 14.550781 C 16.140625 14.707031 15.804688 15.796875 15.488281 17.710938 C 15.023438 20.15625 14.664062 21.5 13.738281 22.269531 C 13.554688 22.40625 13.289062 22.601562 12.886719 22.617188 C 12.8125 22.621094 12.34375 22.507812 12.808594 22.132812 C 13.394531 21.8125 13.078125 20.796875 12.234375 20.824219 C 11.855469 20.835938 11.277344 21.191406 11.296875 21.847656 C 11.320312 22.523438 11.949219 23.03125 12.898438 22.996094 C 13.410156 22.980469 14.542969 22.773438 15.65625 21.445312 C 17.191406 19.648438 17.484375 17.511719 17.898438 15.214844 C 19.890625 15.453125 20.875 14.53125 20.890625 13.839844 C 20.910156 12.90625 19.808594 12.9375 19.65625 13.636719 C 19.582031 13.980469 20.175781 14.285156 19.710938 14.582031 C 19.386719 14.796875 18.796875 14.945312 17.972656 14.824219 C 18.371094 12.632812 18.710938 10.488281 20.242188 10.4375 C 20.347656 10.429688 20.730469 10.441406 20.738281 10.695312 C 20.742188 10.902344 20.476562 11.066406 20.484375 11.421875 C 20.5 11.824219 20.804688 12.085938 21.246094 12.070312 C 21.839844 12.050781 22.007812 11.476562 21.996094 11.179688 C 21.972656 10.484375 21.242188 10.046875 20.269531 10.074219 Z M 20.273438 10.074219 "/>
</g>
</svg>
