<?xml version="1.0" encoding="UTF-8"?>
<svg xmlns="http://www.w3.org/2000/svg" xmlns:xlink="http://www.w3.org/1999/xlink" viewBox="0 0 50 50" width="50px" height="50px">
<g id="surface36714918">
<path style=" stroke:none;fill-rule:nonzero;fill:rgb(59.607846%,21.176471%,95.686275%);fill-opacity:1;" d="M 25 2 C 12.3125 2 2 12.3125 2 25 C 2 37.6875 12.3125 48 25 48 C 37.6875 48 48 37.6875 48 25 C 48 12.3125 37.6875 2 25 2 Z M 25 4 C 36.605469 4 46 13.394531 46 25 C 46 36.605469 36.605469 46 25 46 C 13.394531 46 4 36.605469 4 25 C 4 13.394531 13.394531 4 25 4 Z M 25 6 C 14.511719 6 6 14.511719 6 25 C 6 35.488281 14.511719 44 25 44 C 35.488281 44 44 35.488281 44 25 C 44 14.511719 35.488281 6 25 6 Z M 25 8 C 28.972656 8 32.613281 9.367188 35.503906 11.636719 C 34.996094 12.257812 34.699219 13.054688 34.699219 13.898438 C 34.699219 15.5 35.601562 16.898438 36.601562 18.5 C 37.398438 19.800781 38.199219 21.5 38.199219 23.898438 C 38.199219 25.601562 37.699219 27.699219 36.699219 30.300781 L 34.699219 36.898438 L 27.601562 15.699219 C 28.800781 15.597656 29.902344 15.5 29.902344 15.5 C 30.902344 15.398438 30.800781 13.902344 29.800781 13.902344 L 29.699219 13.902344 C 29.699219 13.902344 26.5 14.199219 24.402344 14.199219 C 22.5 14.199219 19.199219 13.902344 19.199219 13.902344 L 19.101562 13.902344 C 18.101562 13.902344 18 15.5 19 15.5 C 19 15.5 20 15.597656 21.101562 15.699219 L 24.199219 24.097656 L 19.902344 37 L 12.699219 15.597656 C 13.898438 15.5 15 15.398438 15 15.398438 C 16 15.300781 15.902344 13.800781 14.902344 13.800781 L 14.800781 13.800781 C 14.800781 13.800781 13.488281 13.910156 12.046875 13.996094 C 15.160156 10.328125 19.796875 8 25 8 Z M 37.089844 13.042969 C 38.449219 14.417969 39.5625 16.027344 40.394531 17.804688 C 40.371094 18.9375 40.183594 20.066406 39.902344 21.199219 C 39.5 19.800781 39 18.601562 38.402344 17.601562 L 38.199219 17.199219 C 37.398438 15.898438 36.800781 14.898438 36.800781 14 C 36.800781 13.65625 36.898438 13.320312 37.089844 13.042969 Z M 23.597656 16.097656 L 24.597656 16.097656 C 25 16.199219 25.300781 16.199219 25.800781 16.199219 L 25.898438 16.398438 L 33 37.597656 L 33.695312 39.59375 C 33.316406 39.824219 32.925781 40.035156 32.523438 40.230469 L 27.199219 26 L 26.5 24.097656 L 26.300781 23.398438 Z M 10.464844 16.199219 L 10.898438 16.199219 L 11 16.398438 L 18.199219 37.800781 L 18.800781 39.597656 L 18.457031 40.695312 C 18.183594 40.582031 17.917969 40.445312 17.652344 40.316406 L 9.515625 17.992188 C 9.796875 17.375 10.117188 16.777344 10.464844 16.199219 Z M 41.585938 21.292969 C 41.851562 22.488281 42 23.726562 42 25 C 42 30.257812 39.625 34.945312 35.886719 38.0625 L 40.597656 24.402344 C 41.035156 23.289062 41.351562 22.261719 41.585938 21.296875 Z M 8.367188 21.472656 L 14.582031 38.425781 C 10.578125 35.316406 8 30.472656 8 25 C 8 23.789062 8.128906 22.609375 8.367188 21.472656 Z M 25 26.597656 L 30.339844 41.132812 C 28.660156 41.6875 26.867188 42 25 42 C 23.257812 42 21.582031 41.734375 20 41.25 Z M 25 26.597656 "/>
</g>
</svg>
